<svg width="92" height="92" viewBox="0 0 92 92" fill="none" xmlns="http://www.w3.org/2000/svg">
<path d="M87.9879 64.8167L86.1236 63.9805V63.9812C88.9767 57.5972 90.2685 50.6253 89.8931 43.6426C89.5177 36.6598 87.4853 29.8676 83.9634 23.8265L85.7275 22.7939C89.4137 29.1163 91.5417 36.2249 91.9344 43.5317C92.3277 50.8391 90.975 58.1352 87.9877 64.8149L87.9879 64.8167Z" fill="#222222"/>
<path d="M80.7119 19.0276C74.6256 11.2035 66.0757 5.66464 56.4469 3.30698C46.8189 0.949812 36.6768 1.91248 27.6641 6.03954L26.8105 4.18295C36.2415 -0.137265 46.855 -1.14614 56.9307 1.32011C67.0066 3.78702 75.9549 9.58384 82.3243 17.7717L80.7119 19.0276Z" fill="#222222"/>
<path d="M4.18361 65.1902C0.259984 56.6261 -0.941929 47.0645 0.739369 37.7955C2.42132 28.5269 6.90583 19.9969 13.5876 13.3564L15.029 14.8081C8.64239 21.1516 4.35552 29.3025 2.74668 38.1596C1.13847 47.0169 2.28526 56.1538 6.0337 64.3385L4.18361 65.1902Z" fill="#222222"/>
<path d="M84.8469 92H7.15799C6.34491 92 5.56455 91.6772 4.98958 91.1015C4.41458 90.5265 4.0918 89.7468 4.0918 88.9331V39.8676C4.0918 39.0539 4.41458 38.2742 4.98958 37.6992C5.56458 37.1236 6.34494 36.8008 7.15799 36.8008H61.3361V38.8453H7.15799C6.59326 38.8453 6.13569 39.3029 6.13569 39.8676V88.9331C6.13569 89.2046 6.2435 89.4645 6.43538 89.6563C6.62726 89.8476 6.88716 89.9554 7.15797 89.9554H84.8469C85.1177 89.9554 85.3777 89.8476 85.5695 89.6563C85.7614 89.4645 85.8692 89.2046 85.8692 88.9331V39.8676C85.8692 39.5962 85.7614 39.3363 85.5695 39.1444C85.3776 38.9531 85.1177 38.8453 84.8469 38.8453H70.5355V36.8008H84.8469C85.66 36.8008 86.4404 37.1236 87.0153 37.6992C87.5903 38.2742 87.9131 39.054 87.9131 39.8676V88.9331C87.9131 89.7469 87.5903 90.5266 87.0153 91.1016C86.4403 91.6772 85.66 92 84.8469 92L84.8469 92Z" fill="#222222"/>
<path d="M82.8009 87.911H15.3338C14.7697 87.911 14.3115 87.4535 14.3115 86.8894V41.9113C14.3115 41.3472 14.7697 40.8896 15.3338 40.8896H57.2447V42.9342L16.3557 42.9335V85.8679H81.7774V42.9335H66.4443V40.8897H82.7998C83.0706 40.8897 83.3312 40.9968 83.5224 41.1887C83.7143 41.3806 83.8221 41.6405 83.8221 41.9113V86.8894C83.8221 87.1602 83.7143 87.4201 83.5224 87.612C83.3311 87.8039 83.0706 87.911 82.7998 87.911L82.8009 87.911Z" fill="#222222"/>
<path d="M10.2234 70.5328C8.59663 70.5328 7.03663 69.8866 5.88663 68.7365C4.73599 67.5865 4.09033 66.0265 4.09033 64.3997C4.09033 62.7729 4.73592 61.2129 5.88663 60.0629C7.03663 58.9129 8.59668 58.2666 10.2234 58.2666C11.8502 58.2666 13.4102 58.9128 14.5602 60.0629C15.7102 61.213 16.3565 62.7729 16.3565 64.3997C16.3553 66.0259 15.7084 67.5847 14.5584 68.7347C13.4085 69.8847 11.8497 70.5316 10.2234 70.5328ZM10.2234 60.3105C9.13889 60.3105 8.09857 60.7417 7.33234 61.5086C6.56546 62.2755 6.13421 63.3151 6.13421 64.3997C6.13421 65.4843 6.56546 66.5239 7.33234 67.2908C8.09859 68.0577 9.13882 68.4889 10.2234 68.4889C11.308 68.4889 12.3476 68.0577 13.1145 67.2908C13.8814 66.5239 14.312 65.4843 14.312 64.3997C14.312 63.3151 13.8814 62.2755 13.1145 61.5086C12.3476 60.7417 11.308 60.3105 10.2234 60.3105Z" fill="#222222"/>
<path d="M5.1123 43.9551H15.3346V45.9996H5.1123V43.9551Z" fill="#222222"/>
<path d="M5.1123 54.1777H15.3346V56.2223H5.1123V54.1777Z" fill="#222222"/>
<path d="M5.1123 72.5781H15.3346V74.6227H5.1123V72.5781Z" fill="#222222"/>
<path d="M5.1123 82.7998H15.3346V84.8444H5.1123V82.7998Z" fill="#222222"/>
<path d="M5.1123 49.0674H15.3346V51.1119H5.1123V49.0674Z" fill="#222222"/>
<path d="M5.1123 77.6895H15.3346V79.734H5.1123V77.6895Z" fill="#222222"/>
<path d="M9.20117 44.9785H11.2457V55.2009H9.20117V44.9785Z" fill="#222222"/>
<path d="M9.20117 73.5996H11.2457V83.822H9.20117V73.5996Z" fill="#222222"/>
<path d="M52.773 56.3415C52.6941 56.3415 52.6158 56.3325 52.5388 56.3152C52.1942 56.2337 51.9157 55.9795 51.804 55.6433L51.1571 53.7014L50.0533 52.5963L48.1115 51.9495H48.1108C47.7752 51.8372 47.5217 51.5586 47.4402 51.214C47.3593 50.87 47.462 50.5081 47.7117 50.2572L82.4071 15.5634L82.4078 15.564C82.8069 15.1649 83.4538 15.1649 83.853 15.564L88.1904 19.9003C88.5896 20.2995 88.5896 20.9464 88.1904 21.3455L53.4966 56.0426C53.3047 56.2345 53.0442 56.3423 52.7727 56.3417L52.773 56.3415ZM50.3286 50.535L50.9286 50.7397C51.0795 50.7904 51.2161 50.8745 51.3285 50.9861L52.7737 52.4326C52.886 52.5449 52.97 52.6816 53.0201 52.8324L53.2248 53.4311L86.0277 20.6283L83.1359 17.7372L50.3286 50.535Z" fill="#222222"/>
<path d="M45.5461 59.2333C45.2073 59.2333 44.8896 59.0652 44.6997 58.7848C44.5091 58.5037 44.4706 58.1469 44.5964 57.8318L47.4875 50.6006L49.3869 51.3591L47.3808 56.3762L52.3896 54.3708L53.1565 56.2698L45.9286 59.1609C45.8066 59.209 45.677 59.234 45.5461 59.2334L45.5461 59.2333Z" fill="#222222"/>
<path d="M78.0713 21.3472L79.5171 19.9014L83.8539 24.2382L82.4081 25.684L78.0713 21.3472Z" fill="#222222"/>
<path d="M75.9043 23.5162L77.3501 22.0703L81.6869 26.4071L80.2411 27.853L75.9043 23.5162Z" fill="#222222"/>
<path d="M32.7122 24.5328H14.3122C13.7481 24.5328 13.2905 24.0752 13.2905 23.5105V5.11053C13.2905 4.54643 13.7481 4.08887 14.3122 4.08887H32.7122C32.9836 4.08887 33.2435 4.19604 33.4354 4.38792C33.6273 4.5798 33.7344 4.8397 33.7344 5.11051V23.5105C33.7344 23.7819 33.6273 24.0418 33.4354 24.2337C33.2435 24.4256 32.9836 24.5328 32.7122 24.5328V24.5328ZM15.334 22.4889H31.6901V6.13283H15.334V22.4889Z" fill="#222222"/>
<path d="M32.7119 33.7327C30.0019 33.7302 27.4035 32.6521 25.4871 30.7358C23.5709 28.8196 22.4927 26.2213 22.4902 23.5106H24.5348H24.5341C24.5341 25.6796 25.396 27.7595 26.9297 29.2933C28.4635 30.827 30.5434 31.6889 32.7118 31.6889C34.8808 31.6889 36.9607 30.827 38.4944 29.2933C40.0282 27.7595 40.8901 25.6796 40.8901 23.5106C40.8901 21.3422 40.0282 19.2623 38.4944 17.7285C36.9607 16.1948 34.8808 15.3329 32.7118 15.3329V13.2891C36.3638 13.2891 39.7387 15.2373 41.5646 18.3998C43.391 21.5623 43.391 25.459 41.5646 28.6222C39.7389 31.7846 36.364 33.7329 32.7118 33.7329L32.7119 33.7327Z" fill="#222222"/>
<path d="M13.5894 5.83452L15.0352 4.38867L33.4352 22.7886L31.9893 24.2345L13.5894 5.83452Z" fill="#222222"/>
<path d="M19.7241 5.83549L21.17 4.38965L33.4368 16.6565L31.991 18.1024L19.7241 5.83549Z" fill="#222222"/>
<path d="M13.5894 11.9673L15.0352 10.5215L27.3021 22.7883L25.8562 24.2342L13.5894 11.9673Z" fill="#222222"/>
<path d="M25.8564 5.83354L27.3023 4.3877L33.4354 10.5208L31.9895 11.9666L25.8564 5.83354Z" fill="#222222"/>
<path d="M13.5894 18.1011L15.0352 16.6553L21.1683 22.7884L19.7225 24.2342L13.5894 18.1011Z" fill="#222222"/>
<path d="M55.2013 33.7324H49.0682C48.5035 33.7324 48.0459 33.2748 48.0459 32.7101V26.577C48.0459 26.0123 48.5035 25.5547 49.0682 25.5547H55.2013C55.4721 25.5547 55.7327 25.6625 55.9239 25.8544C56.1158 26.0456 56.2236 26.3062 56.2236 26.577V32.7101C56.2236 32.9815 56.1158 33.2414 55.9239 33.4333C55.7326 33.6252 55.4721 33.7324 55.2013 33.7324V33.7324ZM50.0905 31.6879H54.1798L54.1791 27.5993H50.0906L50.0905 31.6879Z" fill="#222222"/>
<path d="M61.8466 26.578C60.6267 26.578 59.4561 26.0935 58.5936 25.231C57.7311 24.3678 57.2466 23.1979 57.2466 21.9779C57.2466 20.758 57.7311 19.5881 58.5936 18.7256C59.4561 17.8624 60.6266 17.3779 61.8466 17.3779C63.0666 17.3779 64.2365 17.8624 65.099 18.7256C65.9621 19.5881 66.4466 20.758 66.4466 21.9779C66.4453 23.1979 65.9602 24.3671 65.0977 25.229C64.2352 26.0915 63.066 26.5766 61.8466 26.5779L61.8466 26.578ZM61.8466 19.4225C61.1689 19.4225 60.5189 19.6914 60.0395 20.1708C59.5601 20.6502 59.2912 21.3002 59.2912 21.9779C59.2912 22.6556 59.5601 23.3057 60.0395 23.7851C60.5189 24.2644 61.1689 24.5333 61.8466 24.5333C62.5243 24.5333 63.1744 24.2644 63.6538 23.7851C64.1325 23.3057 64.402 22.6556 64.402 21.9779C64.402 21.3002 64.1325 20.6502 63.6538 20.1708C63.1744 19.6914 62.5243 19.4225 61.8466 19.4225Z" fill="#222222"/>
<path d="M56.2232 16.3559H48.0455C47.6682 16.3559 47.3217 16.1486 47.1439 15.8161C46.9661 15.4837 46.9854 15.0801 47.1946 14.7663L51.2838 8.63315C51.4847 8.36491 51.7998 8.20703 52.1341 8.20703C52.4691 8.20703 52.7842 8.3649 52.9851 8.63315L57.0743 14.7663H57.0737C57.2829 15.0801 57.3028 15.4837 57.125 15.8161C56.9466 16.1486 56.6001 16.3559 56.2233 16.3559H56.2232ZM49.956 14.3113H54.3129L52.1341 11.0404L49.956 14.3113Z" fill="#222222"/>
<path d="M36.0781 49.7896L37.524 48.3438L43.6571 54.4768L42.2112 55.9227L36.0781 49.7896Z" fill="#222222"/>
<path d="M48.3457 62.0552L49.7915 60.6094L57.9692 68.787L56.5233 70.2329L48.3457 62.0552Z" fill="#222222"/>
<path d="M29.9458 49.7896L31.3916 48.3438L51.8353 68.7874L50.3895 70.2333L29.9458 49.7896Z" fill="#222222"/>
<path d="M30.9673 56.9449L32.4131 55.499L52.8568 75.9427L51.411 77.3886L30.9673 56.9449Z" fill="#222222"/>
<path d="M30.9673 63.0796L32.4131 61.6338L41.6131 70.8338L40.1673 72.2796L30.9673 63.0796Z" fill="#222222"/>
</svg>
