<svg width="501" height="442" viewBox="0 0 501 442" fill="none" xmlns="http://www.w3.org/2000/svg">
<path d="M452.109 353.287H399.214C396.194 353.287 393.745 350.838 393.745 347.818C393.745 344.799 396.194 342.349 399.214 342.349H452.109C473 342.349 489.996 324.927 489.996 303.509V49.2194C490.035 39.1214 486.07 29.4224 478.969 22.2424C471.863 15.0666 462.207 11.0004 452.11 10.9374H49.2199C39.0679 10.9374 29.3289 14.9686 22.1499 22.1484C14.9702 29.3281 10.9389 39.0664 10.9389 49.2184V303.508C10.9389 324.926 28.1109 342.348 49.2199 342.348H381.72C384.739 342.348 387.189 344.798 387.189 347.817C387.189 350.837 384.739 353.286 381.72 353.286H49.2199C22.0719 353.286 0.000854492 330.962 0.000854492 303.509V49.219C0.0164795 36.172 5.20786 23.66 14.4349 14.434C23.6615 5.2074 36.1729 0.016 49.2199 0H452.11C465.106 0.066406 477.548 5.2852 486.7 14.512C495.852 23.7425 500.973 36.223 500.934 49.219V303.509C500.934 330.962 479.059 353.286 452.11 353.286L452.109 353.287Z" fill="white"/>
<path d="M383.829 180.937C376.817 180.937 364.481 179.984 354.013 174.253C342.779 168.105 336.634 158.089 336.251 145.3C336.161 142.281 338.536 139.757 341.555 139.668C344.579 139.578 347.098 141.953 347.188 144.972C347.887 168.64 376.106 170.128 384.692 169.995C395.575 169.855 405.887 165.62 411.61 159.057V159.061C415.54 154.561 417.27 148.553 416.337 142.655C415.001 132.514 407.587 127.276 390.829 124.542C389.11 124.257 387.395 123.995 385.677 123.745C370.595 121.472 354.986 119.12 344.193 103.85V103.846C340.099 98.1589 338.521 91.0454 339.818 84.1584C341.435 75.2443 347.474 66.5064 355.927 60.7634C367.958 52.5837 386.552 51.3884 402.107 57.779C413.279 62.2438 422.146 71.072 426.662 82.224C427.763 85.0365 426.372 88.2123 423.556 89.3099C420.74 90.4076 417.568 89.017 416.47 86.2044C411.974 74.6884 402.021 69.5564 397.954 67.8954C385.825 62.9188 371.071 63.7079 362.067 69.8095C356.075 73.8798 351.676 80.1215 350.583 86.1185L350.579 86.1146C349.794 90.1185 350.712 94.263 353.118 97.5556C361.224 109.017 373.309 110.845 387.309 112.954L392.583 113.774C401.235 115.184 424.247 118.926 427.169 141.258L427.165 141.262C428.52 150.258 425.86 159.395 419.88 166.254C412.169 175.156 398.747 180.789 384.88 180.977L383.829 180.937Z" fill="white"/>
<path d="M383.909 63.447C380.889 63.447 378.44 60.9978 378.44 57.9782V30.6342C378.44 27.6147 380.889 25.1654 383.909 25.1654C386.928 25.1654 389.378 27.6146 389.378 30.6342V57.9782C389.378 59.4274 388.803 60.818 387.776 61.8454C386.749 62.8727 385.358 63.447 383.909 63.447V63.447Z" fill="white"/>
<path d="M383.909 210.007C380.889 210.007 378.44 207.558 378.44 204.538V176.1C378.44 173.081 380.889 170.631 383.909 170.631C386.928 170.631 389.378 173.081 389.378 176.1V204.538C389.378 205.987 388.803 207.378 387.776 208.405C386.749 209.433 385.358 210.007 383.909 210.007V210.007Z" fill="white"/>
<path d="M494.379 239.537H5.4688C2.4493 239.537 0 237.088 0 234.068C0 231.049 2.4492 228.599 5.4688 228.599H494.379C497.398 228.599 499.848 231.049 499.848 234.068C499.848 237.088 497.398 239.537 494.379 239.537Z" fill="white"/>
<path d="M156.409 353.287C153.389 353.287 150.94 350.838 150.94 347.818V5.4782C150.94 2.4587 153.389 0.00939941 156.409 0.00939941C159.428 0.00939941 161.878 2.4586 161.878 5.4782V347.818C161.878 349.267 161.303 350.658 160.276 351.685C159.249 352.713 157.858 353.287 156.409 353.287V353.287Z" fill="white"/>
<path d="M156.409 239.537C154.338 239.537 152.444 238.365 151.518 236.514C150.592 234.662 150.792 232.443 152.034 230.787L182.198 190.896C190.042 180.81 200.44 174.904 211.534 174.216C220.342 173.56 229.014 176.716 235.335 182.892C241.55 189.118 245.038 197.556 245.034 206.353C245.03 215.146 241.538 223.583 235.319 229.806C229.104 236.028 220.671 239.528 211.874 239.536C208.855 239.536 206.405 237.087 206.405 234.067C206.405 231.048 208.855 228.599 211.874 228.599C217.776 228.599 223.436 226.255 227.612 222.079C231.788 217.907 234.132 212.243 234.132 206.341C234.132 200.439 231.788 194.775 227.612 190.603C223.499 186.662 217.897 184.673 212.221 185.134C204.315 185.627 196.733 190.045 190.893 197.56L160.784 237.349C159.753 238.728 158.132 239.537 156.409 239.537L156.409 239.537Z" fill="white"/>
<path d="M156.459 239.317C154.736 239.317 153.115 238.508 152.084 237.13L121.92 197.239C116.123 189.778 108.545 185.372 100.635 184.88C94.959 184.426 89.3578 186.415 85.2438 190.348C81.0719 194.524 78.7282 200.188 78.7282 206.09C78.7282 211.993 81.0759 217.656 85.2477 221.832C89.4196 226.004 95.0797 228.352 100.982 228.356C104.005 228.356 106.45 230.805 106.45 233.825C106.45 236.848 104.005 239.293 100.982 239.293C92.1926 239.278 83.7707 235.774 77.5597 229.551C71.3449 223.332 67.8566 214.903 67.8488 206.113C67.841 197.324 71.3215 188.89 77.5207 182.66C83.8488 176.5 92.5127 173.344 101.322 173.996C112.412 174.684 122.814 180.559 130.611 190.621L160.779 230.543C162.021 232.203 162.22 234.418 161.294 236.27C160.369 238.125 158.474 239.293 156.404 239.293L156.459 239.317Z" fill="white"/>
<path d="M89.6888 305.167C87.474 305.171 85.474 303.839 84.6263 301.792C83.7786 299.745 84.2474 297.39 85.8177 295.827L151.443 230.202C153.579 228.062 157.048 228.062 159.185 230.202C161.326 232.339 161.326 235.808 159.185 237.944L93.5599 303.569C92.5326 304.597 91.1419 305.171 89.6888 305.167V305.167Z" fill="white"/>
<path d="M223.949 305.437C222.496 305.441 221.105 304.867 220.078 303.839L154.223 237.941C152.086 235.805 152.086 232.336 154.223 230.199C156.359 228.058 159.828 228.058 161.965 230.199L227.863 296.097C229.433 297.66 229.902 300.015 229.054 302.062C228.207 304.109 226.207 305.441 223.992 305.437L223.949 305.437Z" fill="white"/>
<path d="M390.399 441.887C387.84 441.887 385.621 440.11 385.063 437.61C384.977 437.184 374.836 394.266 336.708 385.723C334.181 385.156 332.395 382.895 332.434 380.301C332.474 377.711 334.325 375.504 336.872 375.016C338.634 374.676 379.802 366.199 384.997 323.106C385.321 320.406 387.583 318.356 390.302 318.293H390.466C393.138 318.293 395.419 320.227 395.856 322.863C397.602 331.344 400.692 339.492 405.013 346.992C414.212 362.918 427.271 372.336 443.818 374.98C446.435 375.391 448.384 377.609 448.446 380.258C448.509 382.906 446.665 385.215 444.071 385.746C442.388 386.098 402.301 395.098 395.868 437.238C395.474 439.843 393.275 441.801 390.642 441.886L390.399 441.887ZM354.426 380.442C373.117 389.696 383.879 406.004 389.711 418.438C395.148 405.329 404.406 394.157 416.277 386.379C419.316 384.352 422.484 382.523 425.761 380.91C413.304 375.246 402.945 365.5 395.3 352.121C393.683 349.32 392.222 346.434 390.925 343.473C385.613 356.211 376.566 367.043 364.98 374.543C361.613 376.765 358.082 378.734 354.425 380.441L354.426 380.442Z" fill="white"/>
<path d="M49.2188 53.597H41.5625C38.543 53.597 36.0938 51.1478 36.0938 48.1282C36.0938 45.1086 38.5429 42.6594 41.5625 42.6594H49.2188C52.2383 42.6594 54.6875 45.1086 54.6875 48.1282C54.6875 51.1478 52.2383 53.597 49.2188 53.597Z" fill="white"/>
<path d="M49.2188 90.787H41.5625C38.543 90.787 36.0938 88.3378 36.0938 85.3182C36.0938 82.2986 38.5429 79.8494 41.5625 79.8494H49.2188C52.2383 79.8494 54.6875 82.2986 54.6875 85.3182C54.6875 88.3378 52.2383 90.787 49.2188 90.787Z" fill="white"/>
<path d="M49.2188 127.977H41.5625C38.543 127.977 36.0938 125.528 36.0938 122.508C36.0938 119.489 38.5429 117.039 41.5625 117.039H49.2188C52.2383 117.039 54.6875 119.489 54.6875 122.508C54.6875 125.528 52.2383 127.977 49.2188 127.977Z" fill="white"/>
<path d="M49.2188 165.167H41.5625C38.543 165.167 36.0938 162.718 36.0938 159.698C36.0938 156.679 38.5429 154.229 41.5625 154.229H49.2188C52.2383 154.229 54.6875 156.679 54.6875 159.698C54.6875 162.718 52.2383 165.167 49.2188 165.167Z" fill="white"/>
<path d="M49.2188 202.357H41.5625C38.543 202.357 36.0938 199.908 36.0938 196.888C36.0938 193.869 38.5429 191.419 41.5625 191.419H49.2188C52.2383 191.419 54.6875 193.869 54.6875 196.888C54.6875 199.908 52.2383 202.357 49.2188 202.357Z" fill="white"/>
<path d="M49.2188 276.727H41.5625C38.543 276.727 36.0938 274.278 36.0938 271.258C36.0938 268.239 38.5429 265.789 41.5625 265.789H49.2188C52.2383 265.789 54.6875 268.239 54.6875 271.258C54.6875 274.278 52.2383 276.727 49.2188 276.727Z" fill="white"/>
<path d="M49.2188 313.917H41.5625C38.543 313.917 36.0938 311.468 36.0938 308.448C36.0938 305.429 38.5429 302.979 41.5625 302.979H49.2188C52.2383 302.979 54.6875 305.429 54.6875 308.448C54.6875 311.468 52.2383 313.917 49.2188 313.917Z" fill="white"/>
<path d="M86.4088 53.597H78.7526C75.7331 53.597 73.2838 51.1478 73.2838 48.1282C73.2838 45.1086 75.733 42.6594 78.7526 42.6594H86.4088C89.4283 42.6594 91.8776 45.1086 91.8776 48.1282C91.8776 51.1478 89.4284 53.597 86.4088 53.597Z" fill="white"/>
<path d="M86.4088 90.787H78.7526C75.7331 90.787 73.2838 88.3378 73.2838 85.3182C73.2838 82.2986 75.733 79.8494 78.7526 79.8494H86.4088C89.4283 79.8494 91.8776 82.2986 91.8776 85.3182C91.8776 88.3378 89.4284 90.787 86.4088 90.787Z" fill="white"/>
<path d="M86.4088 127.977H78.7526C75.7331 127.977 73.2838 125.528 73.2838 122.508C73.2838 119.489 75.733 117.039 78.7526 117.039H86.4088C89.4283 117.039 91.8776 119.489 91.8776 122.508C91.8776 125.528 89.4284 127.977 86.4088 127.977Z" fill="white"/>
<path d="M86.4088 165.167H78.7526C75.7331 165.167 73.2838 162.718 73.2838 159.698C73.2838 156.679 75.733 154.229 78.7526 154.229H86.4088C89.4283 154.229 91.8776 156.679 91.8776 159.698C91.8776 162.718 89.4284 165.167 86.4088 165.167Z" fill="white"/>
<path d="M86.4088 276.727H78.7526C75.7331 276.727 73.2838 274.278 73.2838 271.258C73.2838 268.239 75.733 265.789 78.7526 265.789H86.4088C89.4283 265.789 91.8776 268.239 91.8776 271.258C91.8776 274.278 89.4284 276.727 86.4088 276.727Z" fill="white"/>
<path d="M123.589 53.597H115.933C112.913 53.597 110.464 51.1478 110.464 48.1282C110.464 45.1086 112.913 42.6594 115.933 42.6594H123.589C126.608 42.6594 129.058 45.1086 129.058 48.1282C129.058 51.1478 126.608 53.597 123.589 53.597Z" fill="white"/>
<path d="M123.589 90.787H115.933C112.913 90.787 110.464 88.3378 110.464 85.3182C110.464 82.2986 112.913 79.8494 115.933 79.8494H123.589C126.608 79.8494 129.058 82.2986 129.058 85.3182C129.058 88.3378 126.608 90.787 123.589 90.787Z" fill="white"/>
<path d="M123.589 127.977H115.933C112.913 127.977 110.464 125.528 110.464 122.508C110.464 119.489 112.913 117.039 115.933 117.039H123.589C126.608 117.039 129.058 119.489 129.058 122.508C129.058 125.528 126.608 127.977 123.589 127.977Z" fill="white"/>
<path d="M123.589 165.167H115.933C112.913 165.167 110.464 162.718 110.464 159.698C110.464 156.679 112.913 154.229 115.933 154.229H123.589C126.608 154.229 129.058 156.679 129.058 159.698C129.058 162.718 126.608 165.167 123.589 165.167Z" fill="white"/>
<path d="M123.589 313.917H115.933C112.913 313.917 110.464 311.468 110.464 308.448C110.464 305.429 112.913 302.979 115.933 302.979H123.589C126.608 302.979 129.058 305.429 129.058 308.448C129.058 311.468 126.608 313.917 123.589 313.917Z" fill="white"/>
<path d="M197.969 53.597H190.313C187.293 53.597 184.844 51.1478 184.844 48.1282C184.844 45.1086 187.293 42.6594 190.313 42.6594H197.969C200.988 42.6594 203.438 45.1086 203.438 48.1282C203.438 51.1478 200.988 53.597 197.969 53.597Z" fill="white"/>
<path d="M197.969 90.787H190.313C187.293 90.787 184.844 88.3378 184.844 85.3182C184.844 82.2986 187.293 79.8494 190.313 79.8494H197.969C200.988 79.8494 203.438 82.2986 203.438 85.3182C203.438 88.3378 200.988 90.787 197.969 90.787Z" fill="white"/>
<path d="M197.969 127.977H190.313C187.293 127.977 184.844 125.528 184.844 122.508C184.844 119.489 187.293 117.039 190.313 117.039H197.969C200.988 117.039 203.438 119.489 203.438 122.508C203.438 125.528 200.988 127.977 197.969 127.977Z" fill="white"/>
<path d="M197.969 165.167H190.313C187.293 165.167 184.844 162.718 184.844 159.698C184.844 156.679 187.293 154.229 190.313 154.229H197.969C200.988 154.229 203.438 156.679 203.438 159.698C203.438 162.718 200.988 165.167 197.969 165.167Z" fill="white"/>
<path d="M197.969 313.917H190.313C187.293 313.917 184.844 311.468 184.844 308.448C184.844 305.429 187.293 302.979 190.313 302.979H197.969C200.988 302.979 203.438 305.429 203.438 308.448C203.438 311.468 200.988 313.917 197.969 313.917Z" fill="white"/>
<path d="M235.159 53.597H227.503C224.483 53.597 222.034 51.1478 222.034 48.1282C222.034 45.1086 224.483 42.6594 227.503 42.6594H235.159C238.178 42.6594 240.628 45.1086 240.628 48.1282C240.628 51.1478 238.178 53.597 235.159 53.597Z" fill="white"/>
<path d="M235.159 90.787H227.503C224.483 90.787 222.034 88.3378 222.034 85.3182C222.034 82.2986 224.483 79.8494 227.503 79.8494H235.159C238.178 79.8494 240.628 82.2986 240.628 85.3182C240.628 88.3378 238.178 90.787 235.159 90.787Z" fill="white"/>
<path d="M235.159 127.977H227.503C224.483 127.977 222.034 125.528 222.034 122.508C222.034 119.489 224.483 117.039 227.503 117.039H235.159C238.178 117.039 240.628 119.489 240.628 122.508C240.628 125.528 238.178 127.977 235.159 127.977Z" fill="white"/>
<path d="M235.159 165.167H227.503C224.483 165.167 222.034 162.718 222.034 159.698C222.034 156.679 224.483 154.229 227.503 154.229H235.159C238.178 154.229 240.628 156.679 240.628 159.698C240.628 162.718 238.178 165.167 235.159 165.167Z" fill="white"/>
<path d="M235.159 276.727H227.503C224.483 276.727 222.034 274.278 222.034 271.258C222.034 268.239 224.483 265.789 227.503 265.789H235.159C238.178 265.789 240.628 268.239 240.628 271.258C240.628 274.278 238.178 276.727 235.159 276.727Z" fill="white"/>
<path d="M272.349 53.597H264.693C261.673 53.597 259.224 51.1478 259.224 48.1282C259.224 45.1086 261.673 42.6594 264.693 42.6594H272.349C275.368 42.6594 277.818 45.1086 277.818 48.1282C277.818 51.1478 275.368 53.597 272.349 53.597Z" fill="white"/>
<path d="M272.349 90.787H264.693C261.673 90.787 259.224 88.3378 259.224 85.3182C259.224 82.2986 261.673 79.8494 264.693 79.8494H272.349C275.368 79.8494 277.818 82.2986 277.818 85.3182C277.818 88.3378 275.368 90.787 272.349 90.787Z" fill="white"/>
<path d="M272.349 127.977H264.693C261.673 127.977 259.224 125.528 259.224 122.508C259.224 119.489 261.673 117.039 264.693 117.039H272.349C275.368 117.039 277.818 119.489 277.818 122.508C277.818 125.528 275.368 127.977 272.349 127.977Z" fill="white"/>
<path d="M272.349 165.167H264.693C261.673 165.167 259.224 162.718 259.224 159.698C259.224 156.679 261.673 154.229 264.693 154.229H272.349C275.368 154.229 277.818 156.679 277.818 159.698C277.818 162.718 275.368 165.167 272.349 165.167Z" fill="white"/>
<path d="M272.349 202.357H264.693C261.673 202.357 259.224 199.908 259.224 196.888C259.224 193.869 261.673 191.419 264.693 191.419H272.349C275.368 191.419 277.818 193.869 277.818 196.888C277.818 199.908 275.368 202.357 272.349 202.357Z" fill="white"/>
<path d="M272.349 276.727H264.693C261.673 276.727 259.224 274.278 259.224 271.258C259.224 268.239 261.673 265.789 264.693 265.789H272.349C275.368 265.789 277.818 268.239 277.818 271.258C277.818 274.278 275.368 276.727 272.349 276.727Z" fill="white"/>
<path d="M272.349 313.917H264.693C261.673 313.917 259.224 311.468 259.224 308.448C259.224 305.429 261.673 302.979 264.693 302.979H272.349C275.368 302.979 277.818 305.429 277.818 308.448C277.818 311.468 275.368 313.917 272.349 313.917Z" fill="white"/>
<path d="M309.529 53.597H301.873C298.853 53.597 296.404 51.1478 296.404 48.1282C296.404 45.1086 298.853 42.6594 301.873 42.6594H309.529C312.548 42.6594 314.998 45.1086 314.998 48.1282C314.998 51.1478 312.548 53.597 309.529 53.597Z" fill="white"/>
<path d="M309.529 202.357H301.873C298.853 202.357 296.404 199.908 296.404 196.888C296.404 193.869 298.853 191.419 301.873 191.419H309.529C312.548 191.419 314.998 193.869 314.998 196.888C314.998 199.908 312.548 202.357 309.529 202.357Z" fill="white"/>
<path d="M309.529 276.727H301.873C298.853 276.727 296.404 274.278 296.404 271.258C296.404 268.239 298.853 265.789 301.873 265.789H309.529C312.548 265.789 314.998 268.239 314.998 271.258C314.998 274.278 312.548 276.727 309.529 276.727Z" fill="white"/>
<path d="M309.529 313.917H301.873C298.853 313.917 296.404 311.468 296.404 308.448C296.404 305.429 298.853 302.979 301.873 302.979H309.529C312.548 302.979 314.998 305.429 314.998 308.448C314.998 311.468 312.548 313.917 309.529 313.917Z" fill="white"/>
<path d="M346.719 276.727H339.063C336.043 276.727 333.594 274.278 333.594 271.258C333.594 268.239 336.043 265.789 339.063 265.789H346.719C349.738 265.789 352.188 268.239 352.188 271.258C352.188 274.278 349.738 276.727 346.719 276.727Z" fill="white"/>
<path d="M346.719 313.917H339.063C336.043 313.917 333.594 311.468 333.594 308.448C333.594 305.429 336.043 302.979 339.063 302.979H346.719C349.738 302.979 352.188 305.429 352.188 308.448C352.188 311.468 349.738 313.917 346.719 313.917Z" fill="white"/>
<path d="M383.909 276.727H376.253C373.233 276.727 370.784 274.278 370.784 271.258C370.784 268.239 373.233 265.789 376.253 265.789H383.909C386.928 265.789 389.378 268.239 389.378 271.258C389.378 274.278 386.928 276.727 383.909 276.727Z" fill="white"/>
<path d="M383.909 313.917H376.253C373.233 313.917 370.784 311.468 370.784 308.448C370.784 305.429 373.233 302.979 376.253 302.979H383.909C386.928 302.979 389.378 305.429 389.378 308.448C389.378 311.468 386.928 313.917 383.909 313.917Z" fill="white"/>
<path d="M421.089 276.727H413.433C410.413 276.727 407.964 274.278 407.964 271.258C407.964 268.239 410.413 265.789 413.433 265.789H421.089C424.108 265.789 426.558 268.239 426.558 271.258C426.558 274.278 424.108 276.727 421.089 276.727Z" fill="white"/>
<path d="M421.089 313.917H413.433C410.413 313.917 407.964 311.468 407.964 308.448C407.964 305.429 410.413 302.979 413.433 302.979H421.089C424.108 302.979 426.558 305.429 426.558 308.448C426.558 311.468 424.108 313.917 421.089 313.917Z" fill="white"/>
<path d="M458.279 53.597H450.623C447.603 53.597 445.154 51.1478 445.154 48.1282C445.154 45.1086 447.603 42.6594 450.623 42.6594H458.279C461.298 42.6594 463.748 45.1086 463.748 48.1282C463.748 51.1478 461.298 53.597 458.279 53.597Z" fill="white"/>
<path d="M458.279 202.357H450.623C447.603 202.357 445.154 199.908 445.154 196.888C445.154 193.869 447.603 191.419 450.623 191.419H458.279C461.298 191.419 463.748 193.869 463.748 196.888C463.748 199.908 461.298 202.357 458.279 202.357Z" fill="white"/>
<path d="M458.279 276.727H450.623C447.603 276.727 445.154 274.278 445.154 271.258C445.154 268.239 447.603 265.789 450.623 265.789H458.279C461.298 265.789 463.748 268.239 463.748 271.258C463.748 274.278 461.298 276.727 458.279 276.727Z" fill="white"/>
<path d="M458.279 313.917H450.623C447.603 313.917 445.154 311.468 445.154 308.448C445.154 305.429 447.603 302.979 450.623 302.979H458.279C461.298 302.979 463.748 305.429 463.748 308.448C463.748 311.468 461.298 313.917 458.279 313.917Z" fill="white"/>
</svg>
